<svg xmlns="http://www.w3.org/2000/svg" xmlns:xlink="http://www.w3.org/1999/xlink" width="350" height="70"
     viewBox="0 0 700 140">
    <defs>
        <linearGradient id="a" x1="0.605" y1="0.985" x2="0.252" y2="0.126" gradientUnits="objectBoundingBox">
            <stop offset="0" stop-color="#0017bf"/>
            <stop offset="0.002" stop-color="#0017bf"/>
            <stop offset="0.201" stop-color="#0040ca"/>
            <stop offset="0.461" stop-color="#0071d7"/>
            <stop offset="0.691" stop-color="#0094e1"/>
            <stop offset="0.878" stop-color="#00aae6"/>
            <stop offset="1" stop-color="#00b2e9"/>
        </linearGradient>
        <clipPath id="e">
            <rect width="700" height="140"/>
        </clipPath>
    </defs>
    <g id="d" clip-path="url(#e)">
        <g transform="translate(10 11.506)">
            <path
                d="M78.983-452.046c-4.4,2.8-12.253,10.261-16.655,15.822a88.451,88.451,0,0,0-18.856,46.337,107.149,107.149,0,0,0,0,19.3C45.2-357.5,50.64-347.595,59.354-341.8a35.545,35.545,0,0,0,13.413,5.413c3.569.743,12.4.714,16.358-.03,6.513-1.279,12.224-3.866,16.209-7.346l1.011-.922,2.944,1.963c10.945,7.287,22.276,8,32.507,2.082,13.711-7.971,25.25-28.611,27.659-49.46a100.051,100.051,0,0,0-.595-19.808c-1.219-6.811-3.569-14.365-4.848-15.5-.506-.476-1.011-.565-3.3-.476-14.424.416-32.388,7.882-43.868,18.291-.714.625-1.368,1.1-1.457,1.011-.059-.089-.595-1.547-1.19-3.242-5.681-16.566-17.25-32.448-30.544-41.816C81.571-453.117,80.768-453.176,78.983-452.046Zm4.372,6.662a85.518,85.518,0,0,1,20.878,25.518c10.231,19.213,12.818,45.236,6.037,61a29.69,29.69,0,0,1-15.138,15.406,5.978,5.978,0,0,1-1.755.535,4.361,4.361,0,0,1,.773-1.576c4.818-7.881,7.2-23.912,6.335-42.619-.357-7.644-.892-13.681-1.7-19.213-.773-5.175-2.26-12.462-2.706-13.175a2.451,2.451,0,0,0-3.985-.3c-.714.773-.744,1.814-.149,4.342,1.636,6.9,2.974,17.993,3.45,28.462.952,20.581-1.933,36.4-7.852,42.887-2.112,2.29-3.956,3.182-6.6,3.212a5.9,5.9,0,0,1-3.658-.892c-2.141-1.16-3.9-3.182-5.5-6.305a49.779,49.779,0,0,1-4.521-16.447c-.327-3.212-.654-4.1-1.666-4.64a2.487,2.487,0,0,0-3.539,1.249,16.276,16.276,0,0,0,.149,3.985c.952,7.554,2.706,13.949,5.056,18.38a10.6,10.6,0,0,1,1.19,2.677c-.3.3-5.621-2.558-7.584-4.045-6.1-4.61-9.993-11.54-11.956-21.235-.625-3.034-.684-4.164-.684-11.837,0-9.071.268-11.629,1.814-18.707a84.019,84.019,0,0,1,25.429-43.928,62.76,62.76,0,0,1,5.532-4.58C81.035-447.228,82.106-446.4,83.355-445.384Zm78.19,27.065a81.539,81.539,0,0,1,2.558,11.837,93.209,93.209,0,0,1-.119,18.44,72.03,72.03,0,0,1-9.4,26.44c-6.156,10.409-13,16.566-21,18.915a18,18,0,0,1-6.1.833,18.4,18.4,0,0,1-3.956-.268c-.446-.268-.327-.387.744-.981,8.863-4.878,20.135-19.451,29.206-37.8,2.974-6.037,5.829-12.937,5.829-14.127,0-1.814-2.706-2.915-4.1-1.725a19.7,19.7,0,0,0-1.993,4.1c-4.937,12.7-14.93,29.355-22.514,37.5-5.77,6.246-10.053,9.012-14.246,9.279-2.558.149-4.075-.416-5.413-2.022l-.773-.922,1.636-2.5c4.372-6.721,6.632-14.811,7.138-25.577A96.246,96.246,0,0,0,117.2-398.6l-.446-2.082,1.576-1.428a71.109,71.109,0,0,1,34.292-17.607,36.89,36.89,0,0,1,6.9-.982l1.249-.059Z"
                transform="translate(-43.037 452.827)" fill="url(#a)"/>
            <path
                d="M114.812-390.485c-.446.327-1.011,1.606-1.844,4.1a154.212,154.212,0,0,0-6.722,35.065c-.208,2.29-.178,2.32.684,3.212a2.17,2.17,0,0,0,3,.446c1.1-.535,1.16-.743,1.517-4.7a151.754,151.754,0,0,1,6.365-32.507,26.621,26.621,0,0,0,1.071-3.956C118.886-390.485,116.3-391.526,114.812-390.485Z"
                transform="translate(-87.372 409.319)" fill="url(#a)"/>
            <path
                d="M332.248-332.051a112.707,112.707,0,0,0-14.484,13.413c-4.431,4.848-8.982,10.528-9.16,11.421-.357,1.9,1.7,3.628,3.331,2.8a23.058,23.058,0,0,0,3.539-3.777,122.015,122.015,0,0,1,18.5-18.8,21.93,21.93,0,0,0,2.32-1.993,2.675,2.675,0,0,0-.387-3.212C334.924-333.211,333.735-333.151,332.248-332.051Z"
                transform="translate(-229.592 368.581)" fill="url(#a)"/>
        </g>
        <path
            d="M46.221,0V-26.97c0-6.51,3.348-12.462,11.253-12.462S68.727-33.48,68.727-26.97V0h9.579V-27.435c0-14.136-8.556-19.809-18.228-19.809-8.184,0-13.485,4-16.368,9.393A15.024,15.024,0,0,0,29.2-47.244c-8.277,0-12.462,3.72-14.973,7.812v-7.347H4.65V0h9.579V-26.97c0-6.51,3.441-12.462,11.253-12.462,7.9,0,11.253,5.952,11.253,12.462v26.6L36.642,0Zm60.915-47.244a25.66,25.66,0,0,0-18.135,8l6.045,4.557c3.906-3.255,6.882-4.743,11.253-4.743,6.045,0,8,4.836,8,10.416h-8.37c-12.555,0-21.111,5.022-21.111,15.531,0,9.114,6.882,13.95,15.531,13.95,4.65,0,10.6-.93,13.95-5.487V0h9.579V-28.737C123.876-41.478,118.11-47.244,107.136-47.244ZM114.3-16.182c0,5.022-2.7,8.835-11.718,8.835C98.3-7.347,94.4-9.3,94.4-13.95c0-4.278,3.255-6.51,12.834-6.51H114.3Zm52.266-30.6v6.324a19.652,19.652,0,0,0-14.88-6.789c-13.02,0-22.227,8.742-22.227,23.808,0,14.136,9.207,23.9,22.227,23.9a19.7,19.7,0,0,0,14.88-6.882c0,12.369-5.115,16.275-14.322,16.275-7.254,0-13.764-3.813-16.554-5.487L131.5,10.416c3.72,2.7,10.7,7.254,23.064,7.254,12,0,21.576-6.045,21.576-23.529v-40.92ZM152.8-7.44c-8.835,0-13.764-6.6-13.764-16,0-9.3,4.929-16,13.764-16s13.764,6.7,13.764,16C166.563-14.043,161.634-7.44,152.8-7.44ZM225.99,0,225.9-28.83c0-13.206-6.789-18.414-16.461-18.414-8.277,0-13.113,3.255-16.275,7.347v-6.882h-9.579V0h9.579V-25.947c0-9.3,3.72-13.485,11.625-13.485s11.625,4.185,11.625,13.485V0ZM277.7-19.53v-4.278c0-13.3-8.835-23.436-22.134-23.436S232.5-36.549,232.5-22.878,241.428.465,255.564.465a25.724,25.724,0,0,0,19.344-8.37l-5.673-5.3c-3.906,3.72-8.37,5.859-13.671,5.859-6.882,0-13.671-4.65-13.671-12.183Zm-9.579-7.812h-26.04c0-6.789,6.417-12.09,13.485-12.09S268.119-34.782,268.119-27.342ZM292.392-34.5c0-3.162,3.441-4.929,7.533-4.929a15.7,15.7,0,0,1,10.788,4.65l5.952-5.673a23.313,23.313,0,0,0-16.74-6.789c-9.765,0-17.112,4.929-17.112,12.834,0,6.51,4.371,10.23,13.671,13.95,6.789,2.79,10.974,4.185,10.974,8.091,0,3.348-2.7,5.022-7.719,5.022-4.929,0-9.486-2.7-12.183-5.022L281.418-6.51C285.789-2.232,292.671.465,300.855.465c9.858,0,16.182-5.3,16.182-12.369,0-8.091-7.161-11.439-12.462-13.578C295.647-29.109,292.392-30.783,292.392-34.5Zm41.571-29.109a5.22,5.22,0,0,0-5.208-5.3,5.279,5.279,0,0,0-5.208,5.3,5.22,5.22,0,0,0,5.208,5.3A5.163,5.163,0,0,0,333.963-63.612ZM333.591,0V-46.779h-9.579V0Zm8.742-46.779.093,28.83c0,13.206,6.789,18.414,16.461,18.414,8.277,0,13.113-3.255,16.275-7.347V0h9.579V-46.779h-9.579v25.947c0,9.3-3.72,13.485-11.625,13.485s-11.625-4.185-11.625-13.485V-46.779ZM434.682,0V-26.97c0-6.51,3.348-12.462,11.253-12.462s11.253,5.952,11.253,12.462V0h9.579V-27.435c0-14.136-8.556-19.809-18.228-19.809-8.184,0-13.485,4-16.368,9.393a15.024,15.024,0,0,0-14.508-9.393c-8.277,0-12.462,3.72-14.973,7.812v-7.347h-9.579V0h9.579V-26.97c0-6.51,3.441-12.462,11.253-12.462,7.9,0,11.253,5.952,11.253,12.462v26.6L425.1,0Z"
            transform="translate(174.979 106.465)"/>
    </g>
</svg>
