<svg xmlns="http://www.w3.org/2000/svg" viewBox="0 0 800 360" width="100%" style="display:block">
    <defs>
        <pattern id="dots" width="22" height="22" patternUnits="userSpaceOnUse">
            <circle cx="0.8" cy="0.8" r="0.7" fill="#fff" opacity="0.04"/>
        </pattern>
        <linearGradient id="bar" x1="0" y1="0" x2="1" y2="0">
            <stop offset="0" stop-color="#0017bf"/>
            <stop offset="0.5" stop-color="#0071d7"/>
            <stop offset="1" stop-color="#00b2e9"/>
        </linearGradient>
        <linearGradient id="g" x1="0" y1="0" x2="1" y2="1">
            <stop offset="0" stop-color="#0017bf"/>
            <stop offset="0.5" stop-color="#0071d7"/>
            <stop offset="1" stop-color="#00b2e9"/>
        </linearGradient>
        <clipPath id="frame">
            <rect width="800" height="360" rx="12"/>
        </clipPath>
    </defs>

    <!-- everything is clipped to the rounded frame so corners and the top bar follow the radius -->
    <g clip-path="url(#frame)">
        <rect width="800" height="360" fill="#101a24"/>
        <rect width="800" height="360" fill="url(#dots)"/>
        <rect width="800" height="2.5" fill="url(#bar)" opacity="0.95"/>

        <!-- element-tile mark: "Mg" in a rounded square, like a periodic-table tile -->
        <rect x="378" y="24" width="44" height="44" rx="10" fill="none" stroke="url(#g)" stroke-width="2.2"/>
        <path transform="translate(0 1)" fill="#eeeeee"
              d="M388.48 51L386.12 51L386.12 37.70L388.15 37.70L393.97 47.41L392.90 47.41L398.62 37.70L400.66 37.70L400.67 51L398.34 51L398.32 41.37L398.81 41.37L393.95 49.48L392.85 49.48L387.91 41.37L388.48 41.37L388.48 51M408.64 54.82Q407.23 54.82 405.89 54.45Q404.55 54.08 403.70 53.38L404.76 51.59Q405.42 52.14 406.44 52.47Q407.46 52.80 408.50 52.80Q410.17 52.80 410.95 52.04Q411.73 51.27 411.73 49.73L411.73 47.92L411.92 45.62L411.85 43.32L411.85 40.85L414.11 40.85L414.11 49.46Q414.11 52.22 412.70 53.52Q411.30 54.82 408.64 54.82M408.33 50.54Q406.89 50.54 405.72 49.93Q404.55 49.31 403.88 48.21Q403.20 47.10 403.20 45.62Q403.20 44.16 403.88 43.06Q404.55 41.96 405.72 41.35Q406.89 40.74 408.33 40.74Q409.62 40.74 410.65 41.25Q411.68 41.77 412.29 42.85Q412.91 43.93 412.91 45.62Q412.91 47.31 412.29 48.41Q411.68 49.50 410.65 50.02Q409.62 50.54 408.33 50.54M408.69 48.53Q409.59 48.53 410.29 48.16Q410.99 47.79 411.38 47.13Q411.77 46.48 411.77 45.62Q411.77 44.77 411.38 44.11Q410.99 43.46 410.29 43.11Q409.59 42.75 408.69 42.75Q407.80 42.75 407.09 43.11Q406.37 43.46 405.98 44.11Q405.60 44.77 405.60 45.62Q405.60 46.48 405.98 47.13Q406.37 47.79 407.09 48.16Q407.80 48.53 408.69 48.53Z"/>

        <!-- wordmark -->
        <!-- "Magnesium" wordmark, outlined in Montserrat SemiBold -->
        <path fill="#eeeeee"
              d="M325.52 105L322.17 105L322.17 86.10L325.06 86.10L333.33 99.90L331.81 99.90L339.94 86.10L342.83 86.10L342.86 105L339.54 105L339.51 91.31L340.21 91.31L333.30 102.84L331.73 102.84L324.71 91.31L325.52 91.31L325.52 105M359.20 105L356.02 105L356.02 102.08L355.83 101.46L355.83 96.36Q355.83 94.88 354.94 94.05Q354.05 93.23 352.24 93.23Q351.02 93.23 349.85 93.61Q348.67 93.98 347.86 94.66L346.54 92.20Q347.70 91.31 349.31 90.87Q350.92 90.42 352.64 90.42Q355.78 90.42 357.49 91.92Q359.20 93.42 359.20 96.55L359.20 105M351.48 105.19Q349.86 105.19 348.65 104.64Q347.43 104.08 346.77 103.10Q346.11 102.11 346.11 100.87Q346.11 99.65 346.69 98.68Q347.27 97.71 348.59 97.14Q349.92 96.58 352.10 96.58L356.29 96.58L356.29 98.82L352.35 98.82Q350.62 98.82 350.02 99.37Q349.43 99.92 349.43 100.73Q349.43 101.65 350.16 102.19Q350.89 102.73 352.18 102.73Q353.43 102.73 354.41 102.17Q355.40 101.60 355.83 100.49L356.40 102.52Q355.91 103.78 354.66 104.49Q353.40 105.19 351.48 105.19M369.56 110.43Q367.56 110.43 365.66 109.90Q363.75 109.37 362.54 108.38L364.05 105.84Q365 106.62 366.44 107.09Q367.88 107.56 369.37 107.56Q371.75 107.56 372.85 106.47Q373.96 105.38 373.96 103.19L373.96 100.63L374.23 97.36L374.12 94.09L374.12 90.58L377.33 90.58L377.33 102.81Q377.33 106.73 375.34 108.58Q373.34 110.43 369.56 110.43M369.13 104.35Q367.07 104.35 365.41 103.47Q363.75 102.60 362.80 101.03Q361.84 99.47 361.84 97.36Q361.84 95.28 362.80 93.71Q363.75 92.15 365.41 91.28Q367.07 90.42 369.13 90.42Q370.96 90.42 372.42 91.15Q373.88 91.88 374.76 93.42Q375.63 94.96 375.63 97.36Q375.63 99.76 374.76 101.31Q373.88 102.87 372.42 103.61Q370.96 104.35 369.13 104.35M369.64 101.49Q370.91 101.49 371.91 100.96Q372.91 100.44 373.46 99.51Q374.01 98.57 374.01 97.36Q374.01 96.14 373.46 95.21Q372.91 94.28 371.91 93.78Q370.91 93.28 369.64 93.28Q368.37 93.28 367.36 93.78Q366.35 94.28 365.79 95.21Q365.24 96.14 365.24 97.36Q365.24 98.57 365.79 99.51Q366.35 100.44 367.36 100.96Q368.37 101.49 369.64 101.49M384.64 105L381.26 105L381.26 90.58L384.48 90.58L384.48 94.47L383.91 93.28Q384.66 91.91 386.11 91.16Q387.55 90.42 389.44 90.42Q391.17 90.42 392.54 91.09Q393.90 91.77 394.68 93.16Q395.46 94.55 395.46 96.74L395.46 105L392.09 105L392.09 97.17Q392.09 95.25 391.19 94.31Q390.28 93.36 388.66 93.36Q387.47 93.36 386.55 93.85Q385.64 94.34 385.14 95.29Q384.64 96.25 384.64 97.71L384.64 105M406.03 105.19Q403.63 105.19 401.84 104.23Q400.04 103.27 399.06 101.60Q398.07 99.92 398.07 97.79Q398.07 95.63 399.03 93.97Q399.99 92.31 401.67 91.36Q403.36 90.42 405.52 90.42Q407.63 90.42 409.27 91.34Q410.92 92.26 411.87 93.93Q412.81 95.60 412.81 97.87Q412.81 98.09 412.80 98.36Q412.78 98.63 412.76 98.87L400.74 98.87L400.74 96.63L410.98 96.63L409.65 97.33Q409.68 96.09 409.14 95.14Q408.60 94.20 407.67 93.66Q406.74 93.12 405.52 93.12Q404.28 93.12 403.35 93.66Q402.42 94.20 401.89 95.16Q401.36 96.12 401.36 97.41L401.36 97.95Q401.36 99.25 401.96 100.25Q402.55 101.25 403.63 101.79Q404.71 102.33 406.12 102.33Q407.33 102.33 408.30 101.95Q409.27 101.57 410.03 100.76L411.84 102.84Q410.87 103.97 409.40 104.58Q407.92 105.19 406.03 105.19M420.01 105.19Q418.20 105.19 416.54 104.72Q414.88 104.24 413.90 103.57L415.20 101Q416.17 101.63 417.52 102.03Q418.87 102.44 420.22 102.44Q421.82 102.44 422.53 102Q423.25 101.57 423.25 100.84Q423.25 100.25 422.76 99.94Q422.27 99.63 421.49 99.47Q420.71 99.30 419.75 99.17Q418.79 99.03 417.83 98.80Q416.87 98.57 416.09 98.13Q415.31 97.68 414.82 96.93Q414.34 96.17 414.34 94.93Q414.34 93.55 415.12 92.54Q415.90 91.53 417.32 90.97Q418.74 90.42 420.68 90.42Q422.14 90.42 423.62 90.74Q425.11 91.07 426.08 91.66L424.79 94.23Q423.76 93.61 422.72 93.38Q421.68 93.15 420.65 93.15Q419.12 93.15 418.37 93.61Q417.63 94.06 417.63 94.77Q417.63 95.42 418.12 95.74Q418.60 96.06 419.39 96.25Q420.17 96.44 421.13 96.56Q422.09 96.68 423.03 96.93Q423.98 97.17 424.77 97.59Q425.57 98.01 426.05 98.76Q426.54 99.52 426.54 100.73Q426.54 102.08 425.74 103.08Q424.95 104.08 423.49 104.64Q422.03 105.19 420.01 105.19M432.33 105L428.96 105L428.96 90.58L432.33 90.58L432.33 105M430.66 88.21Q429.71 88.21 429.11 87.61Q428.50 87.02 428.50 86.18Q428.50 85.32 429.11 84.74Q429.71 84.16 430.66 84.16Q431.60 84.16 432.21 84.71Q432.82 85.26 432.82 86.10Q432.82 86.99 432.22 87.60Q431.63 88.21 430.66 88.21M442.36 105.19Q440.53 105.19 439.12 104.50Q437.72 103.81 436.93 102.39Q436.15 100.98 436.15 98.82L436.15 90.58L439.53 90.58L439.53 98.36Q439.53 100.30 440.40 101.26Q441.28 102.22 442.90 102.22Q444.09 102.22 444.97 101.73Q445.84 101.25 446.34 100.28Q446.84 99.30 446.84 97.87L446.84 90.58L450.22 90.58L450.22 105L447.01 105L447.01 101.11L447.57 102.30Q446.84 103.70 445.44 104.45Q444.04 105.19 442.36 105.19M457.52 105L454.15 105L454.15 90.58L457.36 90.58L457.36 94.42L456.79 93.28Q457.52 91.88 458.91 91.15Q460.30 90.42 462.08 90.42Q464.11 90.42 465.61 91.42Q467.11 92.42 467.59 94.44L466.27 93.98Q466.97 92.36 468.59 91.39Q470.21 90.42 472.34 90.42Q474.07 90.42 475.41 91.09Q476.75 91.77 477.50 93.16Q478.26 94.55 478.26 96.74L478.26 105L474.88 105L474.88 97.17Q474.88 95.25 474.05 94.31Q473.21 93.36 471.64 93.36Q470.54 93.36 469.69 93.85Q468.83 94.34 468.36 95.28Q467.89 96.22 467.89 97.68L467.89 105L464.51 105L464.51 97.17Q464.51 95.25 463.68 94.31Q462.84 93.36 461.27 93.36Q460.17 93.36 459.32 93.85Q458.47 94.34 457.99 95.28Q457.52 96.22 457.52 97.68L457.52 105Z"/>
        <text x="400" y="127" text-anchor="middle" font-family="ui-monospace,Menlo,monospace" font-size="11"
              fill="#00b2e9" opacity="0.8">Sass toolkit for design tokens as CSS custom properties
        </text>

        <!-- code mockup: emit a token, get a custom property -->
        <rect x="130" y="152" width="540" height="168" rx="10" fill="#0c141d" stroke="#243341"/>
        <rect x="130" y="152" width="540" height="28" rx="10" fill="#16212c"/>
        <rect x="130" y="170" width="540" height="10" fill="#16212c"/>
        <line x1="130" y1="180" x2="670" y2="180" stroke="#243341" stroke-width="0.75"/>
        <circle cx="152" cy="166" r="4.5" fill="#ff5f57"/>
        <circle cx="168" cy="166" r="4.5" fill="#febc2e"/>
        <circle cx="184" cy="166" r="4.5" fill="#28c840"/>

        <g font-family="ui-monospace,Menlo,monospace" font-size="13">
            <text x="150" y="212">
                <tspan fill="#00b2e9">@use</tspan>
                <tspan fill="#7fd88f">"@magnesium/theme"</tspan>
                <tspan fill="#c8d0d4"></tspan>
                <tspan fill="#00b2e9">with</tspan>
                <tspan fill="#c8d0d4">(</tspan>
                <tspan fill="#82aaff">$prefix</tspan>
                <tspan fill="#c8d0d4">:</tspan>
                <tspan fill="#7fd88f">"ds"</tspan>
                <tspan fill="#c8d0d4">);</tspan>
            </text>
            <text x="150" y="250">
                <tspan fill="#00b2e9">@include</tspan>
                <tspan fill="#c8d0d4">theme.emit((</tspan>
                <tspan fill="#7fd88f">"text-color"</tspan>
                <tspan fill="#c8d0d4">:</tspan>
                <tspan fill="#e0a973">darkcyan</tspan>
                <tspan fill="#c8d0d4">),</tspan>
                <tspan fill="#7fd88f">"button"</tspan>
                <tspan fill="#c8d0d4">);</tspan>
            </text>
            <text x="150" y="288">
                <tspan fill="#6b757a">// → --ds-button-text-color: darkcyan;</tspan>
            </text>
        </g>
    </g>

    <!-- crisp rounded border drawn on top, aligned with the clipped fill -->
    <rect x="0.5" y="0.5" width="799" height="359" rx="11.5" fill="none" stroke="#2a3a47"/>
</svg>
